# xmcd CD database file
#
# Track frame offsets:
#	150
#	12872
#	29838
#	41875
#	53489
#	63728
#	75889
#	89212
#	99874
#	113587
#	126137
#
# Disc length: 1878 seconds
#
# Revision: 0
# Processed by: cddbd v1.5.2PL0 Copyright (c) Steve Scherf et al.
# Submitted via: CDex 1.51
#
DISCID=8907540b
DTITLE=Tito Rodriguez - Puerto Rico Canta Y Baila
DYEAR=1900
DGENRE=Salsa
TTITLE0=Puerto Rico Canta Y Baila
TTITLE1=Hoy Sin Ayer, Ni Mañana
TTITLE2=La Castigadora
TTITLE3=La Insoportable
TTITLE4=No Estoy En Na
TTITLE5=Yo Soy De Aqui
TTITLE6=Que Hare
TTITLE7=Ven Pa Aca
TTITLE8=Puerto Rico Del Alma
TTITLE9=Ay Que Bueno
TTITLE10=Cuba Esta Triste
EXTD=
EXTT0=
EXTT1=
EXTT2=
EXTT3=
EXTT4=
EXTT5=
EXTT6=
EXTT7=
EXTT8=
EXTT9=
EXTT10=
PLAYORDER=
